<svg xmlns="http://www.w3.org/2000/svg" viewBox="0 0 128.37 133"><defs><style>.cls-1{fill:blue;}</style></defs><g id="Calque_2" data-name="Calque 2"><g id="Calque_1-2" data-name="Calque 1"><path class="cls-1" d="M2.44,47.31l-1.1,3.42-1.27-.4L2.75,42,4,42.41l-1.1,3.43,10.72,3.45-.48,1.48Z"/><path class="cls-1" d="M2.31,32.63l.79-1.5L5,34.4l-.57,1.1Zm3.37,6.84a1.08,1.08,0,0,0-.46-.14,1.21,1.21,0,0,0-.37.07.85.85,0,0,1-.24,0,.25.25,0,0,1-.19-.08,1.77,1.77,0,0,1-.31-.56.68.68,0,0,1,0-.56.82.82,0,0,1,.55-.35L7.55,32.4,8.73,33,6.13,38l3.55,1.87,1.9-3.6,1.15.6-1.9,3.6,4.09,2.16,2.68-5.08,1.18.62-3.4,6.45Z"/><path class="cls-1" d="M19.54,36.93a.93.93,0,0,1-.58-.09.31.31,0,0,1-.14-.14.53.53,0,0,1-.06-.22,1.52,1.52,0,0,0-.12-.36,1,1,0,0,0-.3-.32L9.62,29.22,10.56,28l9,6.79,3.29-4.36,1.06.8-3.69,4.89a.64.64,0,0,1-.17.52A.71.71,0,0,1,19.54,36.93Z"/><path class="cls-1" d="M17.33,22.23a1,1,0,0,0-.39-.28,1.21,1.21,0,0,0-.38-.06.78.78,0,0,1-.24,0,.29.29,0,0,1-.15-.14,1.52,1.52,0,0,1-.12-.62.66.66,0,0,1,.18-.54.78.78,0,0,1,.63-.15l4.49-4.29.92,1-4,3.86L21,23.84,24,21l.89.94L21.9,24.77l3.2,3.35,4.15-4,.92,1-5.27,5Zm-1-7.56,1.22-1.17.78,3.71-.89.86Z"/><path class="cls-1" d="M32.25,22.82a5.32,5.32,0,0,1-2.92-.77,8,8,0,0,1-2.49-2.44,8.24,8.24,0,0,1-1.35-3.19,5.18,5.18,0,0,1,.34-3,5.36,5.36,0,0,1,2-2.33,5.53,5.53,0,0,1,1.88-.83,4.53,4.53,0,0,1,1.9,0l.1,1.31a4.22,4.22,0,0,0-1.58,0,4.17,4.17,0,0,0-1.57.68A3.48,3.48,0,0,0,26.92,15a6.05,6.05,0,0,0,1.23,3.7,6,6,0,0,0,3,2.53,3.72,3.72,0,0,0,3.33-.58,3.62,3.62,0,0,0,1.68-2.55l1.31.2a4.76,4.76,0,0,1-.76,1.93,5.67,5.67,0,0,1-1.52,1.53A5.6,5.6,0,0,1,32.25,22.82Z"/><path class="cls-1" d="M34.59,7.26,36,6.66l2.06,4.89L43.4,9.31,41.34,4.42l1.43-.6,4.89,11.61-1.43.6-2.31-5.49L38.6,12.78l2.31,5.49-1.43.6Z"/><path class="cls-1" d="M50.73,2.29A1.37,1.37,0,0,1,51,1.6a.87.87,0,0,1,.56-.31,1.2,1.2,0,0,1,.74.05.62.62,0,0,1,.35.43,1.7,1.7,0,0,1,0,.32L59.08,13l-1.6.32-1.83-3.14-4.75.93-.51,3.6L48.8,15ZM55.05,9,51.88,3.4l-.82,6.36Z"/><path class="cls-1" d="M60.66,1.85a.77.77,0,0,0-.06-.37,1.52,1.52,0,0,0-.2-.29.8.8,0,0,1-.15-.2.65.65,0,0,1,0-.25,1.08,1.08,0,0,1,.32-.51A.78.78,0,0,1,61.11,0a.89.89,0,0,1,.62.33l2.54,0a5.85,5.85,0,0,1,3.54,1A3.37,3.37,0,0,1,69,4.27a3.39,3.39,0,0,1-1,2.57,4.14,4.14,0,0,1-2.64,1l3.27,5.2-1.78,0-3.2-5.09-1.53,0-.08,5-1.55,0Zm3.56,4.77a4,4,0,0,0,2.42-.54,2.15,2.15,0,0,0,.79-1.84,2.25,2.25,0,0,0-.75-1.88,3.91,3.91,0,0,0-2.4-.65l-2.07,0-.08,4.92Z"/><path class="cls-1" d="M72.38,12.9a5,5,0,0,1-1.46-2.6,8.21,8.21,0,0,1,0-3.49A7.9,7.9,0,0,1,72.25,3.6a5.24,5.24,0,0,1,2.33-1.84,5.44,5.44,0,0,1,3.07-.22A4.87,4.87,0,0,1,81,3.63l-.86,1A3.89,3.89,0,0,0,79,3.46a4.33,4.33,0,0,0-1.64-.63,3.48,3.48,0,0,0-3.15.79,6.07,6.07,0,0,0-1.76,3.5,6.14,6.14,0,0,0,.3,3.93A3.57,3.57,0,0,0,75.47,13a4.91,4.91,0,0,0,1.36.12,3.33,3.33,0,0,0,1.11-.26l.71-3.62-2.92-.57L76,7.38l3.53.69a.67.67,0,0,1,1.08.25.91.91,0,0,1,.14.63.31.31,0,0,1-.18.22,2,2,0,0,0-.27.22,1,1,0,0,0-.18.46l-.79,4a8.36,8.36,0,0,1-2.08.53,7,7,0,0,1-2-.12A5.52,5.52,0,0,1,72.38,12.9Z"/><path class="cls-1" d="M85.12,5.36a1.16,1.16,0,0,0,.09-.47,1.3,1.3,0,0,0-.11-.37A1.11,1.11,0,0,1,85,4.29a.27.27,0,0,1,.07-.2,1.86,1.86,0,0,1,.51-.37.69.69,0,0,1,.57-.05.81.81,0,0,1,.4.51l5.76,2.31-.49,1.23L86.67,5.65l-1.5,3.72L89,10.89l-.48,1.2-3.78-1.51L83,14.87,88.3,17l-.49,1.23L81,15.53Z"/><path class="cls-1" d="M95.06,9.55a.84.84,0,0,0,.13-.35,1.35,1.35,0,0,0,0-.34.82.82,0,0,1,0-.26.47.47,0,0,1,.1-.22,1.15,1.15,0,0,1,.55-.28.8.8,0,0,1,.59.1.91.91,0,0,1,.36.6l2.15,1.35a5.86,5.86,0,0,1,2.53,2.66,3.37,3.37,0,0,1-.46,3.12,3.45,3.45,0,0,1-2.21,1.68,4.21,4.21,0,0,1-2.77-.5l.12,6.14-1.52-.94-.11-6-1.3-.81-2.67,4.27-1.31-.82Zm.59,5.93a4.1,4.1,0,0,0,2.34.78,2.18,2.18,0,0,0,1.63-1.17,2.23,2.23,0,0,0,.33-2,3.85,3.85,0,0,0-1.72-1.79l-1.76-1.1-2.6,4.17Z"/><path class="cls-1" d="M110.1,18.81l1.11,1.09-8.84,9-1.1-1.09Z"/><path class="cls-1" d="M106.16,32.08a5.25,5.25,0,0,1,.61-2.95,7.89,7.89,0,0,1,2.3-2.61A7.78,7.78,0,0,1,112.19,25a5.15,5.15,0,0,1,3,.17,5.44,5.44,0,0,1,2.43,1.88,5.33,5.33,0,0,1,.93,1.84,4.38,4.38,0,0,1,.14,1.89l-1.29.17a4.62,4.62,0,0,0-.06-1.58,4.09,4.09,0,0,0-.77-1.53,3.48,3.48,0,0,0-2.88-1.5A6.06,6.06,0,0,0,110,27.78,5.94,5.94,0,0,0,107.67,31a3.68,3.68,0,0,0,.76,3.29,3.57,3.57,0,0,0,2.64,1.54l-.13,1.32a4.8,4.8,0,0,1-2-.66A5.54,5.54,0,0,1,107.36,35,5.61,5.61,0,0,1,106.16,32.08Z"/><path class="cls-1" d="M121.79,33.82l.75,1.35-11,6.1-.75-1.35Z"/><path class="cls-1" d="M120.84,58.18a.7.7,0,0,1,.51-.32h.17l1.92,0-1.37-1.34a.92.92,0,0,1-.26-.52.81.81,0,0,1,.36-.79,1.32,1.32,0,0,1,.4-.16.71.71,0,0,1,.45.09.75.75,0,0,1,.34.38l1,1.85.53-2.06a.86.86,0,0,1,.22-.46.75.75,0,0,1,.41-.2.83.83,0,0,1,.46.07.76.76,0,0,1,.36.26.85.85,0,0,1,.17.39.83.83,0,0,1-.12.56l-1,1.66,1.83-.54a.5.5,0,0,1,.16-.05.7.7,0,0,1,.59.18.91.91,0,0,1,.3.6.89.89,0,0,1-.18.71.73.73,0,0,1-.64.28l-1.9,0L127,60.18a.84.84,0,0,1,.2.94.77.77,0,0,1-.28.34.87.87,0,0,1-.42.18.72.72,0,0,1-.45-.09.71.71,0,0,1-.33-.37l-1.06-1.86-.53,2.07a1,1,0,0,1-.23.46.65.65,0,0,1-.4.21.78.78,0,0,1-.43-.07.77.77,0,0,1-.55-.66.88.88,0,0,1,.11-.57l1-1.65-1.85.48a.76.76,0,0,1-.69-.11.94.94,0,0,1-.36-.64A.93.93,0,0,1,120.84,58.18Z"/><path class="cls-1" d="M125.49,87.73l1.22-3.39,1.26.46L125,93l-1.26-.45L125,89.19l-10.6-3.83.52-1.46Z"/><path class="cls-1" d="M122,95.45a1,1,0,0,0,.46.15,1,1,0,0,0,.38,0,1.2,1.2,0,0,1,.24,0,.28.28,0,0,1,.18.1,1.74,1.74,0,0,1,.29.56.66.66,0,0,1,0,.57.82.82,0,0,1-.56.32l-3.08,5.39-1.16-.66L121.48,97,118,95l-2,3.53-1.13-.65,2-3.53-4-2.29L110,97l-1.16-.66L112.47,90Zm3.14,7-.84,1.47-1.8-3.33.61-1.08Z"/><path class="cls-1" d="M108.05,97.51a.92.92,0,0,1,.57.12.31.31,0,0,1,.14.14.71.71,0,0,1,0,.22,1.24,1.24,0,0,0,.11.37,1,1,0,0,0,.28.32l8.49,6.88-1,1.2L108,99.67l-3.43,4.23-1-.83,3.86-4.76a.65.65,0,0,1,.18-.52A.77.77,0,0,1,108.05,97.51Z"/><path class="cls-1" d="M109.75,112.29a1,1,0,0,0,.38.28,1.23,1.23,0,0,0,.38.08.75.75,0,0,1,.24,0,.29.29,0,0,1,.15.14,2,2,0,0,1,.09.63.66.66,0,0,1-.2.53.79.79,0,0,1-.63.13l-4.63,4.13-.89-1,4.16-3.71-2.67-3-3,2.71-.87-1,3-2.71-3.08-3.45L97.9,110,97,109l5.43-4.85Zm.77,7.59L109.26,121l-.65-3.73.92-.83Z"/><path class="cls-1" d="M94.86,111.18a5.28,5.28,0,0,1,2.89.87,8.09,8.09,0,0,1,2.4,2.52,8,8,0,0,1,1.24,3.24,5.18,5.18,0,0,1-.43,2.94,5.88,5.88,0,0,1-4,3,4.33,4.33,0,0,1-1.9,0l-.06-1.3a4.53,4.53,0,0,0,1.59.08,4.18,4.18,0,0,0,1.58-.63,3.46,3.46,0,0,0,1.75-2.74,6,6,0,0,0-1.11-3.74,5.88,5.88,0,0,0-3-2.63,3.68,3.68,0,0,0-3.34.46,3.56,3.56,0,0,0-1.77,2.5l-1.3-.25a4.69,4.69,0,0,1,.83-1.91,5.51,5.51,0,0,1,1.57-1.47A5.56,5.56,0,0,1,94.86,111.18Z"/><path class="cls-1" d="M92,126.65l-1.45.55-1.89-5-5.4,2.06,1.89,5-1.45.55L79.21,118l1.44-.55,2.13,5.56L88.17,121l-2.12-5.56,1.45-.55Z"/><path class="cls-1" d="M75.69,131.06a1.37,1.37,0,0,1-.28.69.92.92,0,0,1-.57.29,1.15,1.15,0,0,1-.73-.08.62.62,0,0,1-.34-.44,2.14,2.14,0,0,1,0-.32L67.7,120.1l1.62-.26L71,123l4.78-.77.63-3.58,1.6-.26Zm-4.09-6.83,3,5.68,1-6.33Z"/><path class="cls-1" d="M65.75,131.17a.83.83,0,0,0,0,.37,1.35,1.35,0,0,0,.18.29.51.51,0,0,1,.14.21.38.38,0,0,1,0,.24,1.12,1.12,0,0,1-.34.51.77.77,0,0,1-.56.21.89.89,0,0,1-.61-.36l-2.54-.13a5.89,5.89,0,0,1-3.5-1.1,3.94,3.94,0,0,1,0-5.49,4.19,4.19,0,0,1,2.67-.91l-3.08-5.31,1.78.09,3,5.2,1.52.07.26-5,1.54.08Zm-3.4-4.9a4,4,0,0,0-2.43.46,2.14,2.14,0,0,0-.85,1.81,2.21,2.21,0,0,0,.68,1.91,3.87,3.87,0,0,0,2.37.73l2.07.1.25-4.9Z"/><path class="cls-1" d="M54.42,119.72a5,5,0,0,1,1.36,2.64,8.35,8.35,0,0,1-.13,3.49A7.94,7.94,0,0,1,54.22,129a5.1,5.1,0,0,1-2.39,1.77,5.51,5.51,0,0,1-3.08.11,4.91,4.91,0,0,1-3.26-2.2l.89-1a3.85,3.85,0,0,0,1,1.2,4.85,4.85,0,0,0,1.62.68,3.53,3.53,0,0,0,3.18-.68,6.08,6.08,0,0,0,1.87-3.44,6.14,6.14,0,0,0-.16-3.94,3.57,3.57,0,0,0-2.61-2,5.65,5.65,0,0,0-1.36-.17,3.53,3.53,0,0,0-1.11.22l-.83,3.6,2.89.67-.29,1.26-3.51-.81a.71.71,0,0,1-.57.15.77.77,0,0,1-.5-.44,1,1,0,0,1-.12-.63.36.36,0,0,1,.19-.22,1.46,1.46,0,0,0,.28-.21,1.06,1.06,0,0,0,.2-.45l.92-4a8.08,8.08,0,0,1,2.1-.46,6.84,6.84,0,0,1,2,.2A5.5,5.5,0,0,1,54.42,119.72Z"/><path class="cls-1" d="M41.43,126.82a.9.9,0,0,0-.11.46,1.31,1.31,0,0,0,.09.38.6.6,0,0,1,.06.23.25.25,0,0,1-.07.2,1.86,1.86,0,0,1-.53.34.68.68,0,0,1-.57,0,.77.77,0,0,1-.37-.52l-5.69-2.51.54-1.22,5.11,2.25,1.62-3.67-3.73-1.64.53-1.19L42,121.62l1.86-4.24-5.25-2.31.54-1.22,6.67,2.94Z"/><path class="cls-1" d="M31.64,122.29a.75.75,0,0,0-.15.34,1.4,1.4,0,0,0,0,.35.72.72,0,0,1,0,.25.46.46,0,0,1-.11.22,1.13,1.13,0,0,1-.55.26.75.75,0,0,1-.59-.12.91.91,0,0,1-.34-.62l-2.11-1.41a5.86,5.86,0,0,1-2.43-2.75,3.93,3.93,0,0,1,2.83-4.7,4.11,4.11,0,0,1,2.75.59l.1-6.14,1.48,1-.1,6,1.27.85,2.82-4.18,1.28.86Zm-.39-6a4.12,4.12,0,0,0-2.32-.86,2.22,2.22,0,0,0-1.67,1.11,2.26,2.26,0,0,0-.39,2,3.9,3.9,0,0,0,1.65,1.84l1.72,1.16L33,117.51Z"/><path class="cls-1" d="M16.92,112.52l-1.07-1.13L25,102.72l1.07,1.12Z"/><path class="cls-1" d="M21.31,99.38a5.26,5.26,0,0,1-.71,2.94,7.91,7.91,0,0,1-2.39,2.53A7.92,7.92,0,0,1,15,106.26a5.1,5.1,0,0,1-3-.27,5.41,5.41,0,0,1-2.37-2,5.51,5.51,0,0,1-.86-1.86,4.39,4.39,0,0,1-.08-1.9l1.3-.13a4.46,4.46,0,0,0,0,1.59,4,4,0,0,0,.71,1.55,3.47,3.47,0,0,0,2.83,1.6,6.09,6.09,0,0,0,3.68-1.31,6,6,0,0,0,2.46-3.09,3.67,3.67,0,0,0-.64-3.31,3.62,3.62,0,0,0-2.59-1.64l.18-1.31a4.7,4.7,0,0,1,1.95.73,6,6,0,0,1,2.65,4.44Z"/><path class="cls-1" d="M5.75,97.12l-.7-1.38L16.28,90,17,91.4Z"/><path class="cls-1" d="M7.54,72.8a.75.75,0,0,1-.53.31H6.84L4.93,73l1.32,1.39a.92.92,0,0,1,.24.53.79.79,0,0,1-.39.77,1,1,0,0,1-.41.15.71.71,0,0,1-.44-.1.83.83,0,0,1-.32-.39l-1-1.89-.6,2a.82.82,0,0,1-.24.45.74.74,0,0,1-.41.19A.93.93,0,0,1,2.23,76a.71.71,0,0,1-.35-.27.73.73,0,0,1-.15-.39.87.87,0,0,1,.13-.57l1-1.61L1,73.67a.61.61,0,0,1-.17,0,.68.68,0,0,1-.57-.2.85.85,0,0,1-.28-.6.91.91,0,0,1,.2-.71.75.75,0,0,1,.65-.26l1.9,0L1.45,70.59a.78.78,0,0,1-.25-.52.85.85,0,0,1,.37-.76A.87.87,0,0,1,2,69.15a.7.7,0,0,1,.44.1.78.78,0,0,1,.32.39l1,1.89.6-2A1.15,1.15,0,0,1,4.6,69a.62.62,0,0,1,.41-.2.9.9,0,0,1,.43.08A.81.81,0,0,1,6,69.6a.87.87,0,0,1-.14.56l-1,1.62,1.86-.41a.74.74,0,0,1,.69.13.91.91,0,0,1,.34.65A1,1,0,0,1,7.54,72.8Z"/></g></g></svg>