<?xml version="1.0" standalone="no"?>
<!DOCTYPE svg PUBLIC "-//W3C//DTD SVG 20010904//EN"
 "http://www.w3.org/TR/2001/REC-SVG-20010904/DTD/svg10.dtd">
<svg version="1.0" xmlns="http://www.w3.org/2000/svg"
 width="100.000000pt" height="100.000000pt" viewBox="0 0 100.000000 100.000000"
 preserveAspectRatio="xMidYMid meet">
<metadata>
Created by potrace 1.14, written by Peter Selinger 2001-2017
</metadata>
<g transform="translate(0.000000,100.000000) scale(0.100000,-0.100000)"
fill="#000000" stroke="none">
<path d="M350 978 c-159 -50 -293 -189 -335 -347 -44 -167 8 -363 129 -481 71
-70 113 -96 199 -125 179 -60 375 -13 510 121 195 194 196 512 0 708 -130 130
-330 179 -503 124z m232 -19 c228 -39 395 -249 384 -479 -5 -82 -15 -118 -53
-193 -185 -353 -689 -331 -846 38 -35 82 -43 217 -19 301 43 144 157 263 297
312 92 32 144 37 237 21z"/>
<path d="M328 768 c-2 -7 -4 -60 -4 -117 1 -88 4 -105 19 -115 28 -18 34 5 32
117 -4 134 -2 127 -24 127 -10 0 -21 -6 -23 -12z"/>
<path d="M629 773 c-1 -5 -3 -56 -4 -115 -2 -82 0 -110 11 -119 30 -25 40 5
38 113 -1 57 -2 109 -3 116 -1 13 -40 17 -42 5z"/>
<path d="M207 563 c-6 -16 -19 -33 -27 -40 -21 -17 -66 -16 -84 2 -19 19 -36
19 -36 1 0 -18 38 -46 61 -46 12 0 18 -12 23 -42 19 -124 116 -235 241 -278
202 -70 418 52 466 261 11 50 17 58 45 68 17 6 34 20 37 31 6 24 -3 25 -41 3
-41 -23 -82 -9 -101 35 -16 35 -26 40 -35 16 -8 -22 18 -67 48 -84 23 -12 25
-18 20 -49 -8 -45 -48 -128 -77 -160 -57 -61 -166 -111 -246 -111 -142 0 -282
108 -318 247 l-14 55 30 27 c18 15 34 40 37 59 8 40 -11 44 -29 5z"/>
</g>
</svg>
